<svg width="324" height="90" viewBox="0 0 324 90" fill="none" xmlns="http://www.w3.org/2000/svg">
<g clip-path="url(#clip0_205_38)">
<path d="M82.6605 61.5682C83.278 59.372 83.5836 56.0558 83.5836 51.6259V16.1742C83.5836 12.1259 83.278 8.81602 82.6605 6.30699H111.661C129.984 6.11303 143.081 17.2879 142.888 33.9376C142.888 42.2218 139.663 49.3109 134.244 54.0536C128.83 58.8339 120.879 61.5682 111.661 61.5682H82.6605ZM91.6849 54.3977H111.199C124.527 54.5917 134.78 46.5015 134.63 33.9376C134.786 21.455 124.527 13.2835 111.199 13.515H91.6849V54.3977Z" fill="#3D6E6B"/>
<path d="M156.172 58.909C152.679 56.4062 150.946 53.09 150.946 48.9291C150.946 44.7683 152.673 41.5335 156.172 39.1058C159.627 36.6781 164.541 35.4455 170.922 35.4455C175.187 35.4455 178.986 36.2151 182.328 37.7543C185.634 39.3373 187.935 41.2206 189.201 43.4981H189.893V37.7543C189.893 29.4701 184.249 26.1164 173.684 26.1164C170.379 26.1164 167.117 26.4605 163.93 27.1926C160.743 27.9246 158.13 28.8507 156.134 29.9269V24.2205C161.704 22.0619 167.928 20.9857 174.726 20.9857C189.9 20.9857 197.465 26.3792 197.465 37.1724V52.2391C197.465 56.3624 197.77 59.447 198.388 61.5619H188.939C189.594 59.9789 189.9 57.9016 189.9 55.3175V54.2413H189.282C188.054 56.669 185.79 58.6712 182.484 60.2542C179.141 61.8747 175.262 62.6819 170.847 62.6819C164.548 62.6819 159.671 61.4117 156.178 58.9027L156.172 58.909ZM187.318 53.6281C188.933 52.2391 189.737 50.581 189.737 48.6976C189.85 43.7296 181.443 39.9505 173.759 40.1069C164.08 40.1069 158.511 43.3793 158.511 48.779C158.511 51.4757 159.858 53.5968 162.546 55.1736C165.234 56.7503 168.957 57.5637 173.759 57.5637C179.173 57.5637 184.093 56.4062 187.318 53.6344V53.6281Z" fill="#3D6E6B"/>
<path d="M211.241 61.5681C211.896 59.2969 212.202 56.1371 212.202 52.0889V15.7862C212.202 11.738 211.896 8.57821 211.241 6.30695H220.846C220.272 8.73463 219.96 11.8944 219.96 15.7862V52.0826C219.96 55.9744 220.266 59.1342 220.846 61.5619H211.241V61.5681Z" fill="#3D6E6B"/>
<path d="M238.701 14.3596C237.205 14.3596 236.013 13.9717 235.053 13.1646C234.092 12.395 233.594 11.4314 233.594 10.2739C233.594 7.92126 235.745 6.07547 238.701 6.07547C241.657 6.07547 243.809 7.92752 243.809 10.2739C243.809 11.4314 243.348 12.395 242.387 13.1646C241.427 13.9717 240.198 14.3596 238.701 14.3596ZM233.899 61.5619C234.517 59.2906 234.822 56.1309 234.822 52.0826V29.0384C234.822 25.8411 234.666 23.526 234.361 22.1057C235.552 22.4936 237.011 22.6814 238.739 22.6814C240.466 22.6814 241.888 22.4874 243.079 22.1057C242.736 23.4572 242.543 25.766 242.543 29.0384V52.0826C242.543 56.1309 242.886 59.2906 243.578 61.5619H233.899Z" fill="#3D6E6B"/>
<path d="M256.519 61.5681C257.174 59.2969 257.48 56.1371 257.48 52.0889V15.7862C257.48 11.738 257.174 8.57821 256.519 6.30695H266.124C265.55 8.73463 265.238 11.8944 265.238 15.7862V52.0826C265.238 55.9744 265.544 59.1342 266.124 61.5619H256.519V61.5681Z" fill="#3D6E6B"/>
<path d="M281.79 58.909C278.298 56.4062 276.564 53.09 276.564 48.9291C276.564 44.7683 278.292 41.5335 281.79 39.1058C285.245 36.6781 290.16 35.4455 296.54 35.4455C300.8 35.4455 304.604 36.2151 307.947 37.7543C311.252 39.3373 313.554 41.2206 314.82 43.4981H315.512V37.7543C315.512 29.4701 309.868 26.1164 299.303 26.1164C295.997 26.1164 292.736 26.4605 289.549 27.1926C286.362 27.9246 283.749 28.8507 281.753 29.9269V24.2205C287.322 22.0619 293.546 20.9857 300.344 20.9857C315.518 20.9857 323.083 26.3792 323.083 37.1724V52.2391C323.083 56.3624 323.389 59.447 324.006 61.5619H314.558C315.213 59.9789 315.518 57.9016 315.518 55.3175V54.2413H314.901C313.672 56.669 311.408 58.6712 308.103 60.2542C304.76 61.8747 300.881 62.6819 296.465 62.6819C290.166 62.6819 285.289 61.4117 281.797 58.9027L281.79 58.909ZM312.936 53.6281C314.551 52.2391 315.356 50.581 315.356 48.6976C315.468 43.7296 307.061 39.9505 299.378 40.1069C289.698 40.1069 284.129 43.3793 284.129 48.779C284.129 51.4757 285.476 53.5968 288.164 55.1736C290.852 56.7503 294.576 57.5637 299.378 57.5637C304.791 57.5637 309.712 56.4062 312.936 53.6344V53.6281Z" fill="#3D6E6B"/>
<path d="M143.062 80.4766H150.734V81.1461H144.64V84.2433H150.029V84.9002H144.64V88.6294H150.734V89.2989H143.062V80.4766Z" fill="#3D6E6B"/>
<path d="M159.309 88.6669C158.554 88.1601 158.143 87.4468 158.08 86.5271H159.396C159.453 87.3029 159.727 87.866 160.213 88.2227C160.7 88.5793 161.417 88.7608 162.359 88.7608C163.176 88.7608 163.799 88.6169 164.224 88.3353C164.648 88.0475 164.86 87.6345 164.86 87.0902C164.86 86.7711 164.779 86.502 164.623 86.283C164.461 86.064 164.18 85.8701 163.781 85.6949C163.382 85.5197 162.808 85.3633 162.059 85.2068C160.887 84.9691 159.97 84.6625 159.303 84.2871C158.636 83.9117 158.305 83.3611 158.305 82.6478C158.305 81.8594 158.673 81.2775 159.403 80.9083C160.132 80.5392 161.08 80.3515 162.247 80.3515C163.469 80.3515 164.411 80.5642 165.078 80.9897C165.745 81.4152 166.119 82.0033 166.213 82.7479H164.91C164.785 82.1347 164.498 81.6967 164.043 81.4277C163.594 81.1586 162.964 81.0272 162.159 81.0272C161.411 81.0272 160.85 81.1524 160.463 81.4026C160.076 81.6529 159.883 81.9908 159.883 82.41C159.883 82.6603 159.951 82.8793 160.095 83.0607C160.238 83.2422 160.5 83.4049 160.887 83.5613C161.274 83.7114 161.822 83.8616 162.533 84.0118C163.444 84.2057 164.18 84.4122 164.735 84.6312C165.284 84.8502 165.708 85.138 166.001 85.5009C166.294 85.8638 166.444 86.3268 166.444 86.9025C166.444 87.7034 166.082 88.3228 165.352 88.767C164.623 89.2113 163.637 89.4365 162.39 89.4365C161.143 89.4365 160.07 89.1863 159.315 88.6794L159.309 88.6669Z" fill="#3D6E6B"/>
<path d="M177.245 81.1461H173.553V80.4766H182.509V81.1461H178.83V89.2989H177.245V81.1461Z" fill="#3D6E6B"/>
<path d="M189.819 80.4766H197.49V81.1461H191.396V84.2433H196.785V84.9002H191.396V88.6294H197.49V89.2989H189.819V80.4766ZM195.294 77.6297C195.494 77.3919 195.743 77.2793 196.037 77.2793C196.168 77.2793 196.28 77.3106 196.361 77.3794C196.442 77.4482 196.486 77.5296 196.486 77.6297C196.486 77.8111 196.323 78.0176 195.993 78.2491L194.072 79.6006H193.542L195.288 77.6359L195.294 77.6297Z" fill="#3D6E6B"/>
<path d="M207.917 81.1461H204.225V80.4766H213.181V81.1461H209.501V89.2989H207.917V81.1461Z" fill="#3D6E6B"/>
<path d="M220.977 80.4766H222.561V89.2989H220.977V80.4766Z" fill="#3D6E6B"/>
<path d="M232.178 88.2477C231.355 87.4656 230.949 86.3331 230.949 84.8502C230.949 83.3673 231.355 82.2974 232.172 81.5153C232.989 80.7394 234.161 80.3515 235.695 80.3515C236.968 80.3515 237.99 80.608 238.757 81.1211C239.525 81.6341 239.986 82.3599 240.123 83.2985H238.807C238.676 82.5789 238.34 82.0158 237.803 81.6154C237.267 81.2149 236.587 81.0147 235.758 81.0147C234.716 81.0147 233.924 81.3401 233.369 81.997C232.814 82.654 232.54 83.5988 232.54 84.8439C232.54 86.0891 232.82 87.0714 233.375 87.7409C233.93 88.4104 234.729 88.7483 235.77 88.7483C236.6 88.7483 237.279 88.548 237.81 88.1539C238.34 87.7597 238.676 87.1966 238.807 86.4645H240.123C239.992 87.403 239.537 88.1351 238.764 88.6419C237.99 89.155 236.974 89.4115 235.72 89.4115C234.18 89.4115 233.001 89.0173 232.178 88.2352V88.2477Z" fill="#3D6E6B"/>
<path d="M254.081 87.0339H249.21L248.094 89.2989H247.015L251.586 80.3515H252.503L256.813 89.2989H255.141L254.087 87.0339H254.081ZM253.769 86.3644L251.724 81.9532L249.553 86.3644H253.775H253.769Z" fill="#3D6E6B"/>
<path d="M16.7204 50.8939C16.2028 41.8213 9.01195 34.5508 0 33.9251C9.01195 33.2994 16.2028 26.0226 16.7204 16.9563C17.2381 26.0288 24.4289 33.2994 33.4409 33.9251C24.4289 34.5508 17.2381 41.8276 16.7204 50.8939Z" fill="#3D6E6B"/>
<path d="M29.7052 67.8439H16.8827V64.2649C17.338 60.3793 18.392 56.6127 20.026 53.0775C25.7949 40.5762 38.7484 32.4985 53.0303 32.4985H64.1378L64.2188 33.9188C63.8384 52.6208 48.359 67.8376 29.7115 67.8376L29.7052 67.8439ZM19.658 65.0533H29.7052C46.3758 65.0533 60.296 51.8261 61.3749 35.2891H53.0303C39.8273 35.2891 27.8654 42.7348 22.5518 54.2476C21.055 57.4886 20.0821 60.9425 19.6642 64.5027V65.0533H19.658Z" fill="#3D6E6B"/>
<path d="M64.1063 35.3454H53.0176C38.7357 35.3454 25.7822 27.2677 20.0133 14.7663C18.3793 11.2249 17.3253 7.46451 16.8825 3.57896V3.42254L16.8762 0H29.6988C48.3463 0 63.8257 15.2168 64.2061 33.9251L64.1063 35.3454ZM19.6578 3.3412C20.0756 6.90139 21.0485 10.349 22.5453 13.5963C27.8652 25.1153 39.8271 32.5548 53.0301 32.5548H61.3747C60.2958 16.0115 46.3818 2.78433 29.705 2.78433H19.6578V3.33494V3.3412Z" fill="#3D6E6B"/>
</g>
<defs>
<clipPath id="clip0_205_38">
<rect width="324" height="89.424" fill="white"/>
</clipPath>
</defs>
</svg>
