<svg width="324" height="90" viewBox="0 0 324 90" fill="none" xmlns="http://www.w3.org/2000/svg">
<g clip-path="url(#clip0_421_44)">
<path d="M82.6605 61.9919C83.278 59.7958 83.5836 56.4796 83.5836 52.0497V16.5979C83.5836 12.5497 83.278 9.23978 82.6605 6.73076H111.661C129.984 6.53679 143.081 17.7117 142.888 34.3613C142.888 42.6455 139.663 49.7346 134.244 54.4774C128.83 59.2577 120.879 61.9919 111.661 61.9919H82.6605ZM91.6849 54.8215H111.199C124.527 55.0155 134.78 46.9253 134.63 34.3613C134.786 21.8788 124.527 13.7072 111.199 13.9387H91.6849V54.8215Z" fill="#ECCDA4"/>
<path d="M156.172 59.3327C152.679 56.8299 150.946 53.5137 150.946 49.3529C150.946 45.192 152.673 41.9572 156.172 39.5295C159.627 37.1018 164.541 35.8692 170.922 35.8692C175.187 35.8692 178.986 36.6388 182.328 38.178C185.634 39.761 187.935 41.6443 189.201 43.9218H189.893V38.178C189.893 29.8938 184.249 26.5401 173.684 26.5401C170.379 26.5401 167.117 26.8842 163.93 27.6163C160.743 28.3484 158.13 29.2744 156.134 30.3506V24.6443C161.704 22.4856 167.928 21.4094 174.726 21.4094C189.9 21.4094 197.465 26.8029 197.465 37.5961V52.6628C197.465 56.7861 197.77 59.8708 198.388 61.9856H188.939C189.594 60.4026 189.9 58.3253 189.9 55.7412V54.665H189.282C188.054 57.0927 185.79 59.0949 182.484 60.6779C179.141 62.2984 175.262 63.1056 170.847 63.1056C164.548 63.1056 159.671 61.8354 156.178 59.3264L156.172 59.3327ZM187.318 54.0518C188.933 52.6628 189.737 51.0047 189.737 49.1214C189.85 44.1534 181.443 40.3742 173.759 40.5306C164.08 40.5306 158.511 43.803 158.511 49.2027C158.511 51.8994 159.858 54.0205 162.546 55.5973C165.234 57.174 168.957 57.9874 173.759 57.9874C179.173 57.9874 184.093 56.8299 187.318 54.0581V54.0518Z" fill="#ECCDA4"/>
<path d="M211.241 61.9919C211.896 59.7206 212.202 56.5609 212.202 52.5126V16.21C212.202 12.1617 211.896 9.00198 211.241 6.73071H220.846C220.272 9.1584 219.96 12.3181 219.96 16.21V52.5064C219.96 56.3982 220.266 59.5579 220.846 61.9856H211.241V61.9919Z" fill="#ECCDA4"/>
<path d="M238.701 14.7834C237.205 14.7834 236.013 14.3955 235.053 13.5884C234.092 12.8188 233.594 11.8552 233.594 10.6977C233.594 8.34506 235.745 6.49927 238.701 6.49927C241.657 6.49927 243.809 8.35132 243.809 10.6977C243.809 11.8552 243.348 12.8188 242.387 13.5884C241.427 14.3955 240.198 14.7834 238.701 14.7834ZM233.899 61.9857C234.517 59.7144 234.822 56.5547 234.822 52.5064V29.4622C234.822 26.2649 234.666 23.9498 234.361 22.5295C235.552 22.9174 237.011 23.1052 238.739 23.1052C240.466 23.1052 241.888 22.9112 243.079 22.5295C242.736 23.881 242.543 26.1898 242.543 29.4622V52.5064C242.543 56.5547 242.886 59.7144 243.578 61.9857H233.899Z" fill="#ECCDA4"/>
<path d="M256.519 61.9919C257.174 59.7206 257.48 56.5609 257.48 52.5126V16.21C257.48 12.1617 257.174 9.00198 256.519 6.73071H266.124C265.55 9.1584 265.238 12.3181 265.238 16.21V52.5064C265.238 56.3982 265.544 59.5579 266.124 61.9856H256.519V61.9919Z" fill="#ECCDA4"/>
<path d="M281.79 59.3327C278.298 56.8299 276.564 53.5137 276.564 49.3529C276.564 45.192 278.292 41.9572 281.79 39.5295C285.245 37.1018 290.16 35.8692 296.54 35.8692C300.8 35.8692 304.604 36.6388 307.947 38.178C311.252 39.761 313.554 41.6443 314.82 43.9218H315.512V38.178C315.512 29.8938 309.868 26.5401 299.303 26.5401C295.997 26.5401 292.736 26.8842 289.549 27.6163C286.362 28.3484 283.749 29.2744 281.753 30.3506V24.6443C287.322 22.4856 293.546 21.4094 300.344 21.4094C315.518 21.4094 323.083 26.8029 323.083 37.5961V52.6628C323.083 56.7861 323.389 59.8708 324.006 61.9856H314.558C315.213 60.4026 315.518 58.3253 315.518 55.7412V54.665H314.901C313.672 57.0927 311.408 59.0949 308.103 60.6779C304.76 62.2984 300.881 63.1056 296.465 63.1056C290.166 63.1056 285.289 61.8354 281.797 59.3264L281.79 59.3327ZM312.936 54.0518C314.551 52.6628 315.356 51.0047 315.356 49.1214C315.468 44.1534 307.061 40.3742 299.378 40.5306C289.698 40.5306 284.129 43.803 284.129 49.2027C284.129 51.8994 285.476 54.0205 288.164 55.5973C290.852 57.174 294.576 57.9874 299.378 57.9874C304.791 57.9874 309.712 56.8299 312.936 54.0581V54.0518Z" fill="#ECCDA4"/>
<path d="M143.062 80.9004H150.733V81.5699H144.64V84.6671H150.029V85.324H144.64V89.0532H150.733V89.7227H143.062V80.9004Z" fill="#ECCDA4"/>
<path d="M159.309 89.0909C158.554 88.584 158.143 87.8707 158.08 86.951H159.396C159.452 87.7268 159.727 88.29 160.213 88.6466C160.7 89.0033 161.417 89.1847 162.359 89.1847C163.176 89.1847 163.799 89.0408 164.223 88.7592C164.648 88.4714 164.86 88.0585 164.86 87.5141C164.86 87.195 164.778 86.9259 164.623 86.707C164.46 86.488 164.18 86.294 163.781 86.1188C163.381 85.9436 162.808 85.7872 162.059 85.6308C160.887 85.393 159.97 85.0864 159.303 84.711C158.635 84.3356 158.305 83.785 158.305 83.0717C158.305 82.2833 158.673 81.7014 159.402 81.3323C160.132 80.9631 161.08 80.7754 162.246 80.7754C163.469 80.7754 164.411 80.9881 165.078 81.4136C165.745 81.8391 166.119 82.4272 166.213 83.1718H164.909C164.785 82.5586 164.498 82.1206 164.043 81.8516C163.594 81.5825 162.964 81.4511 162.159 81.4511C161.411 81.4511 160.849 81.5763 160.463 81.8266C160.076 82.0768 159.883 82.4147 159.883 82.8339C159.883 83.0842 159.951 83.3032 160.095 83.4846C160.238 83.6661 160.5 83.8288 160.887 83.9852C161.273 84.1354 161.822 84.2855 162.533 84.4357C163.444 84.6297 164.18 84.8361 164.735 85.0551C165.284 85.2741 165.708 85.5619 166.001 85.9248C166.294 86.2877 166.444 86.7508 166.444 87.3264C166.444 88.1273 166.082 88.7467 165.352 89.191C164.623 89.6352 163.637 89.8605 162.39 89.8605C161.143 89.8605 160.07 89.6102 159.315 89.1034L159.309 89.0909Z" fill="#ECCDA4"/>
<path d="M177.245 81.5699H173.553V80.9004H182.509V81.5699H178.83V89.7227H177.245V81.5699Z" fill="#ECCDA4"/>
<path d="M189.819 80.9004H197.49V81.5699H191.396V84.6671H196.785V85.3241H191.396V89.0532H197.49V89.7227H189.819V80.9004ZM195.294 78.0535C195.494 77.8157 195.743 77.7031 196.036 77.7031C196.167 77.7031 196.28 77.7344 196.361 77.8032C196.442 77.8721 196.486 77.9534 196.486 78.0535C196.486 78.235 196.323 78.4414 195.993 78.6729L194.072 80.0244H193.542L195.288 78.0598L195.294 78.0535Z" fill="#ECCDA4"/>
<path d="M207.917 81.5699H204.225V80.9004H213.181V81.5699H209.501V89.7227H207.917V81.5699Z" fill="#ECCDA4"/>
<path d="M220.977 80.9004H222.561V89.7227H220.977V80.9004Z" fill="#ECCDA4"/>
<path d="M232.178 88.6716C231.355 87.8895 230.949 86.757 230.949 85.2741C230.949 83.7912 231.355 82.7213 232.172 81.9392C232.989 81.1633 234.161 80.7754 235.695 80.7754C236.968 80.7754 237.99 81.0319 238.757 81.545C239.525 82.0581 239.986 82.7839 240.123 83.7224H238.807C238.676 83.0029 238.34 82.4397 237.803 82.0393C237.267 81.6388 236.587 81.4386 235.758 81.4386C234.716 81.4386 233.924 81.764 233.369 82.421C232.814 83.0779 232.539 84.0227 232.539 85.2679C232.539 86.513 232.82 87.4953 233.375 88.1648C233.93 88.8343 234.729 89.1722 235.77 89.1722C236.6 89.1722 237.279 88.972 237.809 88.5778C238.34 88.1836 238.676 87.6205 238.807 86.8884H240.123C239.992 87.827 239.537 88.559 238.764 89.0658C237.99 89.5789 236.974 89.8354 235.72 89.8354C234.18 89.8354 233.001 89.4412 232.178 88.6591V88.6716Z" fill="#ECCDA4"/>
<path d="M254.081 87.4578H249.21L248.094 89.7228H247.015L251.586 80.7754H252.503L256.813 89.7228H255.141L254.087 87.4578H254.081ZM253.769 86.7883L251.723 82.3772L249.553 86.7883H253.775H253.769Z" fill="#ECCDA4"/>
<path d="M16.7204 51.3177C16.2028 42.2452 9.01195 34.9746 0 34.3489C9.01195 33.7232 16.2028 26.4464 16.7204 17.3801C17.2381 26.4527 24.4289 33.7232 33.4409 34.3489C24.4289 34.9746 17.2381 42.2514 16.7204 51.3177Z" fill="#ECCDA4"/>
<path d="M29.7052 68.2677H16.8827V64.6888C17.338 60.8032 18.392 57.0366 20.026 53.5014C25.7949 41.0001 38.7484 32.9224 53.0303 32.9224H64.1378L64.2188 34.3427C63.8384 53.0446 48.359 68.2615 29.7115 68.2615L29.7052 68.2677ZM19.658 65.4772H29.7052C46.3758 65.4772 60.296 52.25 61.3749 35.713H53.0303C39.8273 35.713 27.8654 43.1587 22.5518 54.6714C21.055 57.9125 20.0821 61.3664 19.6642 64.9265V65.4772H19.658Z" fill="#ECCDA4"/>
<path d="M64.1064 35.7692H53.0177C38.7357 35.7692 25.7822 27.6915 20.0133 15.1902C18.3793 11.6488 17.3253 7.88834 16.8825 4.00279V3.84637L16.8763 0.423828H29.6988C48.3464 0.423828 63.8258 15.6407 64.2062 34.3489L64.1064 35.7692ZM19.6578 3.76503C20.0757 7.32522 21.0486 10.7728 22.5454 14.0201C27.8653 25.5391 39.8271 32.9786 53.0301 32.9786H61.3748C60.2958 16.4353 46.3819 3.20816 29.7051 3.20816H19.6578V3.75877V3.76503Z" fill="#ECCDA4"/>
</g>
<defs>
<clipPath id="clip0_421_44">
<rect width="324" height="89.424" fill="white" transform="translate(0 0.423828)"/>
</clipPath>
</defs>
</svg>
