<svg width="65" height="68" viewBox="0 0 65 68" fill="none" xmlns="http://www.w3.org/2000/svg">
<g id="Group">
<path id="Vector" d="M16.7204 50.8939C16.2028 41.8213 9.01195 34.5508 0 33.9251C9.01195 33.2994 16.2028 26.0226 16.7204 16.9563C17.2381 26.0288 24.4289 33.2994 33.4409 33.9251C24.4289 34.5508 17.2381 41.8276 16.7204 50.8939Z" fill="#3D6E6B"/>
<g id="Group_2">
<path id="Vector_2" d="M29.7052 67.8439H16.8827V64.2649C17.338 60.3793 18.392 56.6127 20.026 53.0775C25.7949 40.5762 38.7484 32.4985 53.0303 32.4985H64.1378L64.2188 33.9188C63.8384 52.6208 48.359 67.8376 29.7115 67.8376L29.7052 67.8439ZM19.658 65.0533H29.7052C46.3758 65.0533 60.296 51.8261 61.3749 35.2891H53.0303C39.8273 35.2891 27.8654 42.7348 22.5518 54.2476C21.055 57.4886 20.0821 60.9425 19.6642 64.5027V65.0533H19.658Z" fill="#3D6E6B"/>
<path id="Vector_3" d="M64.1063 35.3454H53.0176C38.7357 35.3454 25.7822 27.2677 20.0133 14.7663C18.3793 11.2249 17.3253 7.46451 16.8825 3.57896V3.42254L16.8762 0H29.6988C48.3463 0 63.8257 15.2168 64.2061 33.9251L64.1063 35.3454ZM19.6578 3.3412C20.0756 6.90139 21.0485 10.349 22.5453 13.5963C27.8652 25.1153 39.8271 32.5548 53.0301 32.5548H61.3747C60.2958 16.0115 46.3818 2.78433 29.705 2.78433H19.6578V3.33494V3.3412Z" fill="#3D6E6B"/>
</g>
</g>
</svg>
