<svg width="242" height="57" viewBox="0 0 242 57" fill="none" xmlns="http://www.w3.org/2000/svg">
<g id="Group">
<path id="Vector" d="M0.660522 55.5682C1.27795 53.372 1.58355 50.0558 1.58355 45.6259V10.1742C1.58355 6.12593 1.27795 2.81602 0.660522 0.30699H29.6609C47.9842 0.113025 61.0812 11.2879 60.8878 27.9376C60.8878 36.2218 57.6635 43.3109 52.2438 48.0536C46.8304 52.8339 38.8787 55.5682 29.6609 55.5682H0.660522ZM9.68495 48.3977H29.1994C42.5271 48.5917 52.7802 40.5015 52.6305 27.9376C52.7864 15.455 42.5271 7.28346 29.1994 7.51497H9.68495V48.3977Z" fill="#3D6E6B"/>
<path id="Vector_2" d="M74.1719 52.909C70.6793 50.4062 68.9456 47.09 68.9456 42.9291C68.9456 38.7683 70.6731 35.5335 74.1719 33.1058C77.627 30.6781 82.5414 29.4455 88.9215 29.4455C93.1874 29.4455 96.9855 30.2151 100.328 31.7543C103.634 33.3373 105.935 35.2206 107.201 37.4981H107.893V31.7543C107.893 23.4701 102.249 20.1164 91.6844 20.1164C88.3789 20.1164 85.1172 20.4605 81.9303 21.1926C78.7433 21.9246 76.1302 22.8507 74.1345 23.9269V18.2205C79.7038 16.0619 85.9279 14.9857 92.7259 14.9857C107.9 14.9857 115.465 20.3792 115.465 31.1724V46.2391C115.465 50.3624 115.77 53.447 116.388 55.5619H106.939C107.594 53.9789 107.9 51.9016 107.9 49.3175V48.2413H107.282C106.054 50.669 103.79 52.6712 100.484 54.2542C97.1414 55.8747 93.2622 56.6819 88.8467 56.6819C82.5477 56.6819 77.6706 55.4117 74.1781 52.9027L74.1719 52.909ZM105.318 47.6281C106.933 46.2391 107.737 44.581 107.737 42.6976C107.85 37.7296 99.4427 33.9505 91.7592 34.1069C82.0799 34.1069 76.5106 37.3793 76.5106 42.779C76.5106 45.4757 77.8577 47.5968 80.5457 49.1736C83.2337 50.7503 86.957 51.5637 91.7592 51.5637C97.1726 51.5637 102.093 50.4062 105.318 47.6344V47.6281Z" fill="#3D6E6B"/>
<path id="Vector_3" d="M129.241 55.5681C129.896 53.2969 130.202 50.1371 130.202 46.0889V9.78619C130.202 5.73796 129.896 2.57821 129.241 0.306946H138.846C138.272 2.73463 137.96 5.89438 137.96 9.78619V46.0826C137.96 49.9744 138.266 53.1342 138.846 55.5619H129.241V55.5681Z" fill="#3D6E6B"/>
<path id="Vector_4" d="M156.701 8.35964C155.205 8.35964 154.013 7.97171 153.053 7.16457C152.092 6.39497 151.594 5.4314 151.594 4.27387C151.594 1.92126 153.745 0.07547 156.701 0.07547C159.657 0.07547 161.809 1.92752 161.809 4.27387C161.809 5.4314 161.348 6.39497 160.387 7.16457C159.427 7.97171 158.198 8.35964 156.701 8.35964ZM151.899 55.5619C152.517 53.2906 152.822 50.1309 152.822 46.0826V23.0384C152.822 19.8411 152.666 17.526 152.361 16.1057C153.552 16.4936 155.011 16.6814 156.739 16.6814C158.466 16.6814 159.888 16.4874 161.079 16.1057C160.736 17.4572 160.543 19.766 160.543 23.0384V46.0826C160.543 50.1309 160.886 53.2906 161.578 55.5619H151.899Z" fill="#3D6E6B"/>
<path id="Vector_5" d="M174.519 55.5681C175.174 53.2969 175.48 50.1371 175.48 46.0889V9.78619C175.48 5.73796 175.174 2.57821 174.519 0.306946H184.124C183.55 2.73463 183.238 5.89438 183.238 9.78619V46.0826C183.238 49.9744 183.544 53.1342 184.124 55.5619H174.519V55.5681Z" fill="#3D6E6B"/>
<path id="Vector_6" d="M199.79 52.909C196.298 50.4062 194.564 47.09 194.564 42.9291C194.564 38.7683 196.292 35.5335 199.79 33.1058C203.245 30.6781 208.16 29.4455 214.54 29.4455C218.8 29.4455 222.604 30.2151 225.947 31.7543C229.252 33.3373 231.554 35.2206 232.82 37.4981H233.512V31.7543C233.512 23.4701 227.868 20.1164 217.303 20.1164C213.997 20.1164 210.736 20.4605 207.549 21.1926C204.362 21.9246 201.749 22.8507 199.753 23.9269V18.2205C205.322 16.0619 211.546 14.9857 218.344 14.9857C233.518 14.9857 241.083 20.3792 241.083 31.1724V46.2391C241.083 50.3624 241.389 53.447 242.006 55.5619H232.558C233.213 53.9789 233.518 51.9016 233.518 49.3175V48.2413H232.901C231.672 50.669 229.408 52.6712 226.103 54.2542C222.76 55.8747 218.881 56.6819 214.465 56.6819C208.166 56.6819 203.289 55.4117 199.797 52.9027L199.79 52.909ZM230.936 47.6281C232.551 46.2391 233.356 44.581 233.356 42.6976C233.468 37.7296 225.061 33.9505 217.378 34.1069C207.698 34.1069 202.129 37.3793 202.129 42.779C202.129 45.4757 203.476 47.5968 206.164 49.1736C208.852 50.7503 212.576 51.5637 217.378 51.5637C222.791 51.5637 227.712 50.4062 230.936 47.6344V47.6281Z" fill="#3D6E6B"/>
</g>
</svg>
