<svg width="114" height="13" viewBox="0 0 114 13" fill="none" xmlns="http://www.w3.org/2000/svg">
<g id="Group">
<path id="Vector" d="M0.0625 3.47659H7.73358V4.14609H1.64037V7.24327H7.02883V7.90025H1.64037V11.6294H7.73358V12.2989H0.0625V3.47659Z" fill="#3D6E6B"/>
<path id="Vector_2" d="M16.3091 11.6669C15.5544 11.1601 15.1428 10.4468 15.0804 9.52706H16.3964C16.4525 10.3029 16.7269 10.866 17.2134 11.2227C17.6998 11.5793 18.417 11.7608 19.3588 11.7608C20.1758 11.7608 20.7995 11.6169 21.2235 11.3353C21.6476 11.0475 21.8597 10.6345 21.8597 10.0902C21.8597 9.77108 21.7786 9.50203 21.6227 9.28304C21.4605 9.06404 21.1799 8.87009 20.7807 8.69489C20.3816 8.5197 19.8078 8.36327 19.0594 8.20684C17.8869 7.96908 16.9701 7.6625 16.3028 7.28708C15.6355 6.91167 15.305 6.36105 15.305 5.64776C15.305 4.85939 15.6729 4.2775 16.4026 3.90834C17.1323 3.53918 18.0803 3.35147 19.2465 3.35147C20.4689 3.35147 21.4106 3.56421 22.078 3.98968C22.7453 4.41515 23.1195 5.0033 23.213 5.74788H21.9096C21.7848 5.1347 21.498 4.69671 21.0427 4.42766C20.5936 4.15862 19.9637 4.02722 19.1592 4.02722C18.4108 4.02722 17.8495 4.15236 17.4628 4.40264C17.0762 4.65292 16.8828 4.99079 16.8828 5.41001C16.8828 5.66028 16.9514 5.87927 17.0949 6.06072C17.2383 6.24217 17.5003 6.40485 17.8869 6.56128C18.2736 6.71144 18.8224 6.86161 19.5334 7.01178C20.444 7.20574 21.1799 7.41221 21.735 7.63121C22.2838 7.8502 22.7079 8.13802 23.001 8.50092C23.2941 8.86382 23.4438 9.32684 23.4438 9.90247C23.4438 10.7034 23.0821 11.3228 22.3524 11.767C21.6227 12.2113 20.6373 12.4365 19.39 12.4365C18.1426 12.4365 17.0699 12.1863 16.3153 11.6794L16.3091 11.6669Z" fill="#3D6E6B"/>
<path id="Vector_3" d="M34.2454 4.14609H30.5533V3.47659H39.5092V4.14609H35.8295V12.2989H34.2454V4.14609Z" fill="#3D6E6B"/>
<path id="Vector_4" d="M46.8186 3.47658H54.4897V4.14608H48.3965V7.24326H53.7849V7.90023H48.3965V11.6294H54.4897V12.2989H46.8186V3.47658ZM52.2944 0.629683C52.494 0.39192 52.7434 0.279297 53.0365 0.279297C53.1675 0.279297 53.2798 0.310579 53.3609 0.379405C53.4419 0.448231 53.4856 0.529572 53.4856 0.629683C53.4856 0.811134 53.3234 1.01761 52.9929 1.24912L51.072 2.60062H50.5419L52.2882 0.635942L52.2944 0.629683Z" fill="#3D6E6B"/>
<path id="Vector_5" d="M64.9173 4.14609H61.2252V3.47659H70.1811V4.14609H66.5014V12.2989H64.9173V4.14609Z" fill="#3D6E6B"/>
<path id="Vector_6" d="M77.9769 3.47659H79.561V12.2989H77.9769V3.47659Z" fill="#3D6E6B"/>
<path id="Vector_7" d="M89.1778 11.2477C88.3546 10.4656 87.9492 9.3331 87.9492 7.8502C87.9492 6.36731 88.3546 5.29738 89.1716 4.51526C89.9886 3.7394 91.1611 3.35147 92.6953 3.35147C93.9676 3.35147 94.9904 3.608 95.7575 4.12107C96.5246 4.63414 96.9861 5.35995 97.1233 6.29849H95.8074C95.6764 5.57894 95.3396 5.01582 94.8033 4.61537C94.2669 4.21493 93.5871 4.0147 92.7577 4.0147C91.7161 4.0147 90.9241 4.34007 90.369 4.99705C89.814 5.65402 89.5396 6.59882 89.5396 7.84395C89.5396 9.08908 89.8202 10.0714 90.3753 10.7409C90.9303 11.4104 91.7286 11.7483 92.7702 11.7483C93.5996 11.7483 94.2794 11.548 94.8095 11.1539C95.3396 10.7597 95.6764 10.1966 95.8074 9.46449H97.1233C96.9924 10.403 96.5371 11.1351 95.7637 11.6419C94.9904 12.155 93.9738 12.4115 92.7202 12.4115C91.1798 12.4115 90.0011 12.0173 89.1778 11.2352V11.2477Z" fill="#3D6E6B"/>
<path id="Vector_8" d="M111.081 10.0339H106.21L105.094 12.2989H104.015L108.586 3.35147H109.503L113.813 12.2989H112.141L111.087 10.0339H111.081ZM110.769 9.36438L108.724 4.95324L106.553 9.36438H110.775H110.769Z" fill="#3D6E6B"/>
</g>
</svg>
